<?xml version="1.0" encoding="utf-8"?>
<!-- Generator: Adobe Illustrator 16.0.0, SVG Export Plug-In . SVG Version: 6.00 Build 0)  -->
<!DOCTYPE svg PUBLIC "-//W3C//DTD SVG 1.1//EN" "http://www.w3.org/Graphics/SVG/1.1/DTD/svg11.dtd">
<svg version="1.1" id="Layer" xmlns="http://www.w3.org/2000/svg" xmlns:xlink="http://www.w3.org/1999/xlink" x="0px" y="0px"
	 width="512px" height="512px" viewBox="0 0 512 512" enable-background="new 0 0 512 512" xml:space="preserve">
<path fill="#F8AB35" d="M255.989,448c8.832,0,16-7.168,16-16V112.808l116.416,122.225c6.088,6.392,16.208,6.655,22.624,0.552
	c6.4-6.096,6.648-16.216,0.552-22.616L278.621,73.376C272.573,67.328,264.541,64,255.989,64c-8.544,0-16.584,3.328-22.896,9.656
	L100.405,212.968c-6.096,6.4-5.84,16.521,0.552,22.616c6.393,6.104,16.521,5.848,22.616-0.552l116.416-122.736V432
	C239.989,440.832,247.157,448,255.989,448z"/>
</svg>
